<?xml version="1.0" encoding="UTF-8" standalone="no"?>
<!DOCTYPE svg PUBLIC "-//W3C//DTD SVG 1.1//EN"
 "http://www.w3.org/Graphics/SVG/1.1/DTD/svg11.dtd">
<!-- Generated by graphviz version 2.43.0 (0)
 -->
<!-- Title: %3 Pages: 1 -->
<svg width="212pt" height="210pt"
 viewBox="0.00 0.00 212.00 209.72" xmlns="http://www.w3.org/2000/svg" xmlns:xlink="http://www.w3.org/1999/xlink">
<g id="graph0" class="graph" transform="scale(1 1) rotate(0) translate(4 205.72)">
<title>%3</title>
<polygon fill="white" stroke="transparent" points="-4,4 -4,-205.72 208,-205.72 208,4 -4,4"/>
<!-- x -->
<g id="node1" class="node">
<title>x</title>
<polygon fill="lightgray" stroke="black" points="90.5,-201.72 68.5,-201.72 68.5,-183.72 90.5,-183.72 90.5,-201.72"/>
<text text-anchor="middle" x="79.5" y="-190.52" font-family="Times,serif" font-size="9.00">x</text>
</g>
<!-- 51 -->
<g id="node7" class="node">
<title>51</title>
<ellipse fill="white" stroke="black" cx="79.5" cy="-127.22" rx="20.51" ry="20.51"/>
<text text-anchor="middle" x="79.5" y="-125.02" font-family="Times,serif" font-size="9.00">51</text>
</g>
<!-- x&#45;&gt;51 -->
<g id="edge3" class="edge">
<title>x&#45;&gt;51</title>
<path fill="none" stroke="green" stroke-width="0.29" d="M79.5,-183.68C79.5,-177.11 79.5,-167.4 79.5,-157.93"/>
<polygon fill="green" stroke="green" stroke-width="0.29" points="83,-157.91 79.5,-147.91 76,-157.91 83,-157.91"/>
</g>
<!-- dx -->
<g id="node2" class="node">
<title>dx</title>
<polygon fill="lightgray" stroke="black" points="139.5,-201.72 111.5,-201.72 111.5,-183.72 139.5,-183.72 139.5,-201.72"/>
<text text-anchor="middle" x="125.5" y="-190.52" font-family="Times,serif" font-size="9.00">dx</text>
</g>
<!-- 1 -->
<g id="node6" class="node">
<title>1</title>
<ellipse fill="lightblue" stroke="black" cx="128.5" cy="-35.36" rx="16.03" ry="16.03"/>
<text text-anchor="middle" x="128.5" y="-33.16" font-family="Times,serif" font-size="9.00">1</text>
</g>
<!-- dx&#45;&gt;1 -->
<g id="edge2" class="edge">
<title>dx&#45;&gt;1</title>
<path fill="none" stroke="red" stroke-width="0.18" d="M125.66,-183.37C126.1,-160.75 127.32,-97.61 128.01,-61.87"/>
<polygon fill="red" stroke="red" stroke-width="0.18" points="131.51,-61.8 128.2,-51.73 124.51,-61.66 131.51,-61.8"/>
</g>
<!-- dx&#45;&gt;51 -->
<g id="edge1" class="edge">
<title>dx&#45;&gt;51</title>
<path fill="none" stroke="red" stroke-width="0.12" d="M119.67,-183.68C113.97,-175.81 105,-163.42 96.98,-152.34"/>
<polygon fill="red" stroke="red" stroke-width="0.12" points="99.8,-150.27 91.1,-144.23 94.13,-154.38 99.8,-150.27"/>
</g>
<!-- theta -->
<g id="node3" class="node">
<title>theta</title>
<polygon fill="lightgray" stroke="black" points="41,-136.22 0,-136.22 0,-118.22 41,-118.22 41,-136.22"/>
<text text-anchor="middle" x="20.5" y="-125.02" font-family="Times,serif" font-size="9.00">theta</text>
</g>
<!-- control -->
<g id="node5" class="node">
<title>control</title>
<ellipse fill="lightblue" stroke="black" cx="39.5" cy="-35.36" rx="35.21" ry="35.21"/>
<text text-anchor="middle" x="39.5" y="-33.16" font-family="Times,serif" font-size="9.00">control</text>
</g>
<!-- theta&#45;&gt;control -->
<g id="edge5" class="edge">
<title>theta&#45;&gt;control</title>
<path fill="none" stroke="red" stroke-width="0.39" d="M22.25,-117.92C24.12,-109.1 27.22,-94.44 30.28,-79.96"/>
<polygon fill="red" stroke="red" stroke-width="0.39" points="33.73,-80.55 32.38,-70.04 26.88,-79.1 33.73,-80.55"/>
</g>
<!-- dtheta -->
<g id="node4" class="node">
<title>dtheta</title>
<polygon fill="lightgray" stroke="black" points="204,-136.22 157,-136.22 157,-118.22 204,-118.22 204,-136.22"/>
<text text-anchor="middle" x="180.5" y="-125.02" font-family="Times,serif" font-size="9.00">dtheta</text>
</g>
<!-- dtheta&#45;&gt;1 -->
<g id="edge7" class="edge">
<title>dtheta&#45;&gt;1</title>
<path fill="none" stroke="green" stroke-width="0.21" d="M175.7,-117.92C167.97,-104.56 152.48,-77.8 141.36,-58.58"/>
<polygon fill="green" stroke="green" stroke-width="0.21" points="144.34,-56.74 136.3,-49.83 138.28,-60.24 144.34,-56.74"/>
</g>
<!-- 51&#45;&gt;control -->
<g id="edge6" class="edge">
<title>51&#45;&gt;control</title>
<path fill="none" stroke="red" stroke-width="0.29" d="M71.41,-108.03C67.45,-99.15 62.52,-88.07 57.72,-77.3"/>
<polygon fill="red" stroke="red" stroke-width="0.29" points="60.84,-75.69 53.57,-67.97 54.44,-78.53 60.84,-75.69"/>
</g>
<!-- 51&#45;&gt;1 -->
<g id="edge4" class="edge">
<title>51&#45;&gt;1</title>
<path fill="none" stroke="green" stroke-width="0.14" d="M88.95,-108.89C96.69,-94.7 107.69,-74.51 116.13,-59.03"/>
<polygon fill="green" stroke="green" stroke-width="0.14" points="119.29,-60.56 121,-50.1 113.14,-57.21 119.29,-60.56"/>
</g>
</g>
</svg>
