<?xml version="1.0" encoding="UTF-8" standalone="no"?>
<!DOCTYPE svg PUBLIC "-//W3C//DTD SVG 1.1//EN"
 "http://www.w3.org/Graphics/SVG/1.1/DTD/svg11.dtd">
<!-- Generated by graphviz version 2.43.0 (0)
 -->
<!-- Title: %3 Pages: 1 -->
<svg width="1172pt" height="218pt"
 viewBox="0.00 0.00 1172.00 218.21" xmlns="http://www.w3.org/2000/svg" xmlns:xlink="http://www.w3.org/1999/xlink">
<g id="graph0" class="graph" transform="scale(1 1) rotate(0) translate(4 214.21)">
<title>%3</title>
<polygon fill="white" stroke="transparent" points="-4,4 -4,-214.21 1168,-214.21 1168,4 -4,4"/>
<!-- x -->
<g id="node1" class="node">
<title>x</title>
<polygon fill="lightgray" stroke="black" points="568,-140.46 546,-140.46 546,-122.46 568,-122.46 568,-140.46"/>
<text text-anchor="middle" x="557" y="-129.26" font-family="Times,serif" font-size="9.00">x</text>
</g>
<!-- control -->
<g id="node25" class="node">
<title>control</title>
<ellipse fill="lightblue" stroke="black" cx="237" cy="-35.36" rx="35.21" ry="35.21"/>
<text text-anchor="middle" x="237" y="-33.16" font-family="Times,serif" font-size="9.00">control</text>
</g>
<!-- x&#45;&gt;control -->
<g id="edge32" class="edge">
<title>x&#45;&gt;control</title>
<path fill="none" stroke="green" stroke-width="0.78" d="M552.05,-122.23C548.5,-117.01 543.25,-110.55 537,-106.71 494.52,-80.63 354.94,-55.24 282.12,-43.36"/>
<polygon fill="green" stroke="green" stroke-width="0.78" points="282.31,-39.84 271.88,-41.7 281.19,-46.75 282.31,-39.84"/>
</g>
<!-- 1 -->
<g id="node26" class="node">
<title>1</title>
<ellipse fill="lightblue" stroke="black" cx="453" cy="-35.36" rx="16.03" ry="16.03"/>
<text text-anchor="middle" x="453" y="-33.16" font-family="Times,serif" font-size="9.00">1</text>
</g>
<!-- x&#45;&gt;1 -->
<g id="edge48" class="edge">
<title>x&#45;&gt;1</title>
<path fill="none" stroke="red" stroke-width="0.2" d="M550.66,-122.24C546.89,-117.52 541.89,-111.58 537,-106.71 516.81,-86.58 491.47,-65.9 473.93,-52.22"/>
<polygon fill="red" stroke="red" stroke-width="0.2" points="475.59,-49.08 465.54,-45.75 471.32,-54.63 475.59,-49.08"/>
</g>
<!-- 2 -->
<g id="node27" class="node">
<title>2</title>
<ellipse fill="lightblue" stroke="black" cx="863" cy="-35.36" rx="16.03" ry="16.03"/>
<text text-anchor="middle" x="863" y="-33.16" font-family="Times,serif" font-size="9.00">2</text>
</g>
<!-- x&#45;&gt;2 -->
<g id="edge39" class="edge">
<title>x&#45;&gt;2</title>
<path fill="none" stroke="red" stroke-width="0.32" d="M562.3,-122.25C566.07,-117.05 571.6,-110.59 578,-106.71 662.86,-55.33 783.45,-41.41 836.37,-37.69"/>
<polygon fill="red" stroke="red" stroke-width="0.32" points="836.84,-41.17 846.59,-37.04 836.39,-34.18 836.84,-41.17"/>
</g>
<!-- 3 -->
<g id="node28" class="node">
<title>3</title>
<ellipse fill="lightblue" stroke="black" cx="557" cy="-35.36" rx="16.03" ry="16.03"/>
<text text-anchor="middle" x="557" y="-33.16" font-family="Times,serif" font-size="9.00">3</text>
</g>
<!-- x&#45;&gt;3 -->
<g id="edge28" class="edge">
<title>x&#45;&gt;3</title>
<path fill="none" stroke="red" stroke-width="0.18" d="M557,-122.44C557,-109.17 557,-82.14 557,-61.88"/>
<polygon fill="red" stroke="red" stroke-width="0.18" points="560.5,-61.74 557,-51.74 553.5,-61.74 560.5,-61.74"/>
</g>
<!-- dx -->
<g id="node2" class="node">
<title>dx</title>
<polygon fill="lightgray" stroke="black" points="78,-140.46 50,-140.46 50,-122.46 78,-122.46 78,-140.46"/>
<text text-anchor="middle" x="64" y="-129.26" font-family="Times,serif" font-size="9.00">dx</text>
</g>
<!-- dx&#45;&gt;control -->
<g id="edge3" class="edge">
<title>dx&#45;&gt;control</title>
<path fill="none" stroke="red" stroke-width="0.28" d="M70.62,-122.24C74.91,-117.29 80.83,-111.11 87,-106.71 120.27,-82.96 162.83,-63.9 194.11,-51.64"/>
<polygon fill="red" stroke="red" stroke-width="0.28" points="195.76,-54.75 203.84,-47.9 193.25,-48.22 195.76,-54.75"/>
</g>
<!-- dx&#45;&gt;1 -->
<g id="edge15" class="edge">
<title>dx&#45;&gt;1</title>
<path fill="none" stroke="red" stroke-width="0.47" d="M69.89,-122.13C74.06,-116.87 80.12,-110.4 87,-106.71 164.27,-65.25 194.89,-87.3 281,-70.71 332.8,-60.73 393.27,-48.52 426.94,-41.68"/>
<polygon fill="red" stroke="red" stroke-width="0.47" points="427.79,-45.07 436.89,-39.65 426.39,-38.22 427.79,-45.07"/>
</g>
<!-- dx&#45;&gt;3 -->
<g id="edge6" class="edge">
<title>dx&#45;&gt;3</title>
<path fill="none" stroke="red" stroke-width="1.19" d="M69.42,-122.39C73.55,-116.96 79.75,-110.18 87,-106.71 244.4,-31.34 308.96,-114.06 478,-70.71 497.49,-65.71 518.31,-56.48 533.68,-48.84"/>
<polygon fill="red" stroke="red" stroke-width="1.19" points="535.62,-51.79 542.93,-44.12 532.43,-45.55 535.62,-51.79"/>
</g>
<!-- theta -->
<g id="node3" class="node">
<title>theta</title>
<polygon fill="lightgray" stroke="black" points="627.5,-140.46 586.5,-140.46 586.5,-122.46 627.5,-122.46 627.5,-140.46"/>
<text text-anchor="middle" x="607" y="-129.26" font-family="Times,serif" font-size="9.00">theta</text>
</g>
<!-- theta&#45;&gt;3 -->
<g id="edge9" class="edge">
<title>theta&#45;&gt;3</title>
<path fill="none" stroke="green" stroke-width="0.28" d="M602.74,-122.44C595.36,-108.55 579.95,-79.54 569.06,-59.05"/>
<polygon fill="green" stroke="green" stroke-width="0.28" points="572.06,-57.24 564.28,-50.05 565.88,-60.52 572.06,-57.24"/>
</g>
<!-- dtheta -->
<g id="node4" class="node">
<title>dtheta</title>
<polygon fill="lightgray" stroke="black" points="1013.5,-140.46 966.5,-140.46 966.5,-122.46 1013.5,-122.46 1013.5,-140.46"/>
<text text-anchor="middle" x="990" y="-129.26" font-family="Times,serif" font-size="9.00">dtheta</text>
</g>
<!-- dtheta&#45;&gt;2 -->
<g id="edge25" class="edge">
<title>dtheta&#45;&gt;2</title>
<path fill="none" stroke="green" stroke-width="0.46" d="M979.17,-122.44C958.06,-106.79 911.09,-71.99 883.78,-51.75"/>
<polygon fill="green" stroke="green" stroke-width="0.46" points="885.78,-48.88 875.66,-45.74 881.61,-54.5 885.78,-48.88"/>
</g>
<!-- dtheta&#45;&gt;3 -->
<g id="edge43" class="edge">
<title>dtheta&#45;&gt;3</title>
<path fill="none" stroke="green" stroke-width="0.21" d="M981.15,-122.39C974.86,-117.1 965.98,-110.49 957,-106.71 888.43,-77.8 661.01,-48.74 583.3,-39.42"/>
<polygon fill="green" stroke="green" stroke-width="0.21" points="583.7,-35.95 573.36,-38.24 582.88,-42.9 583.7,-35.95"/>
</g>
<!-- &#45;5 -->
<g id="node5" class="node">
<title>&#45;5</title>
<polygon fill="lightgray" stroke="black" points="372,-140.46 346,-140.46 346,-122.46 372,-122.46 372,-140.46"/>
<text text-anchor="middle" x="359" y="-129.26" font-family="Times,serif" font-size="9.00">&#45;5</text>
</g>
<!-- &#45;5&#45;&gt;control -->
<g id="edge24" class="edge">
<title>&#45;5&#45;&gt;control</title>
<path fill="none" stroke="red" stroke-width="0.41" d="M352.06,-122.14C347.92,-117.38 342.42,-111.45 337,-106.71 317.74,-89.87 294.44,-73.29 275.18,-60.46"/>
<polygon fill="red" stroke="red" stroke-width="0.41" points="276.93,-57.42 266.65,-54.84 273.08,-63.26 276.93,-57.42"/>
</g>
<!-- &#45;5&#45;&gt;1 -->
<g id="edge7" class="edge">
<title>&#45;5&#45;&gt;1</title>
<path fill="none" stroke="green" stroke-width="0.35" d="M367.01,-122.44C381.9,-107.54 414.14,-75.26 434.64,-54.73"/>
<polygon fill="green" stroke="green" stroke-width="0.35" points="437.27,-57.05 441.86,-47.51 432.32,-52.11 437.27,-57.05"/>
</g>
<!-- &#45;5&#45;&gt;2 -->
<g id="edge40" class="edge">
<title>&#45;5&#45;&gt;2</title>
<path fill="none" stroke="green" stroke-width="0.27" d="M372.06,-124.32C384.03,-118.93 402.36,-111.26 419,-106.71 574.06,-64.29 767.04,-44.59 836.53,-38.51"/>
<polygon fill="green" stroke="green" stroke-width="0.27" points="836.93,-41.98 846.6,-37.65 836.34,-35.01 836.93,-41.98"/>
</g>
<!-- &#45;6 -->
<g id="node6" class="node">
<title>&#45;6</title>
<polygon fill="lightgray" stroke="black" points="760,-140.46 734,-140.46 734,-122.46 760,-122.46 760,-140.46"/>
<text text-anchor="middle" x="747" y="-129.26" font-family="Times,serif" font-size="9.00">&#45;6</text>
</g>
<!-- &#45;6&#45;&gt;1 -->
<g id="edge44" class="edge">
<title>&#45;6&#45;&gt;1</title>
<path fill="none" stroke="red" stroke-width="0.16" d="M733.86,-124.6C721.84,-119.4 703.47,-111.85 687,-106.71 619.49,-85.64 599.15,-92.9 532,-70.71 512.9,-64.4 492.05,-55.23 476.58,-47.95"/>
<polygon fill="red" stroke="red" stroke-width="0.16" points="477.78,-44.65 467.25,-43.49 474.76,-50.97 477.78,-44.65"/>
</g>
<!-- &#45;6&#45;&gt;2 -->
<g id="edge38" class="edge">
<title>&#45;6&#45;&gt;2</title>
<path fill="none" stroke="green" stroke-width="0.11" d="M753.99,-122.2C758.15,-117.46 763.65,-111.52 769,-106.71 792.38,-85.66 821.74,-64.41 841.37,-50.86"/>
<polygon fill="green" stroke="green" stroke-width="0.11" points="843.37,-53.74 849.65,-45.21 839.42,-47.96 843.37,-53.74"/>
</g>
<!-- &#45;7 -->
<g id="node7" class="node">
<title>&#45;7</title>
<polygon fill="lightgray" stroke="black" points="804,-140.46 778,-140.46 778,-122.46 804,-122.46 804,-140.46"/>
<text text-anchor="middle" x="791" y="-129.26" font-family="Times,serif" font-size="9.00">&#45;7</text>
</g>
<!-- &#45;7&#45;&gt;1 -->
<g id="edge33" class="edge">
<title>&#45;7&#45;&gt;1</title>
<path fill="none" stroke="red" stroke-width="0.46" d="M785.48,-122.06C781.54,-116.77 775.75,-110.29 769,-106.71 674.85,-56.84 634.38,-100.2 532,-70.71 512.67,-65.14 491.84,-55.94 476.42,-48.46"/>
<polygon fill="red" stroke="red" stroke-width="0.46" points="477.66,-45.16 467.14,-43.85 474.54,-51.43 477.66,-45.16"/>
</g>
<!-- &#45;7&#45;&gt;2 -->
<g id="edge18" class="edge">
<title>&#45;7&#45;&gt;2</title>
<path fill="none" stroke="green" stroke-width="0.68" stroke-dasharray="1,5" d="M797.14,-122.44C808.15,-108.05 831.57,-77.44 847.3,-56.87"/>
<polygon fill="green" stroke="green" stroke-width="0.68" points="850.22,-58.82 853.52,-48.75 844.66,-54.57 850.22,-58.82"/>
</g>
<!-- &#45;8 -->
<g id="node8" class="node">
<title>&#45;8</title>
<polygon fill="lightgray" stroke="black" points="513,-210.21 487,-210.21 487,-192.21 513,-192.21 513,-210.21"/>
<text text-anchor="middle" x="500" y="-199.01" font-family="Times,serif" font-size="9.00">&#45;8</text>
</g>
<!-- &#45;9 -->
<g id="node9" class="node">
<title>&#45;9</title>
<polygon fill="lightgray" stroke="black" points="948,-140.46 922,-140.46 922,-122.46 948,-122.46 948,-140.46"/>
<text text-anchor="middle" x="935" y="-129.26" font-family="Times,serif" font-size="9.00">&#45;9</text>
</g>
<!-- &#45;9&#45;&gt;2 -->
<g id="edge4" class="edge">
<title>&#45;9&#45;&gt;2</title>
<path fill="none" stroke="red" stroke-width="0.51" d="M928.86,-122.44C917.85,-108.05 894.43,-77.44 878.7,-56.87"/>
<polygon fill="red" stroke="red" stroke-width="0.51" points="881.34,-54.57 872.48,-48.75 875.78,-58.82 881.34,-54.57"/>
</g>
<!-- &#45;9&#45;&gt;3 -->
<g id="edge47" class="edge">
<title>&#45;9&#45;&gt;3</title>
<path fill="none" stroke="green" stroke-width="0.21" d="M929.43,-122.15C925.47,-116.91 919.67,-110.44 913,-106.71 802.22,-44.84 645.4,-36.77 583.55,-36.15"/>
<polygon fill="green" stroke="green" stroke-width="0.21" points="583.48,-32.65 573.47,-36.11 583.45,-39.65 583.48,-32.65"/>
</g>
<!-- &#45;10 -->
<g id="node10" class="node">
<title>&#45;10</title>
<polygon fill="lightgray" stroke="black" points="678,-140.46 646,-140.46 646,-122.46 678,-122.46 678,-140.46"/>
<text text-anchor="middle" x="662" y="-129.26" font-family="Times,serif" font-size="9.00">&#45;10</text>
</g>
<!-- &#45;10&#45;&gt;3 -->
<g id="edge42" class="edge">
<title>&#45;10&#45;&gt;3</title>
<path fill="none" stroke="green" stroke-width="0.52" d="M653.28,-122.02C648.52,-117.45 642.48,-111.72 637,-106.71 616.77,-88.22 593.16,-67.57 576.86,-53.45"/>
<polygon fill="green" stroke="green" stroke-width="0.52" points="578.91,-50.59 569.05,-46.7 574.33,-55.89 578.91,-50.59"/>
</g>
<!-- &#45;11 -->
<g id="node11" class="node">
<title>&#45;11</title>
<polygon fill="lightgray" stroke="black" points="469,-210.21 437,-210.21 437,-192.21 469,-192.21 469,-210.21"/>
<text text-anchor="middle" x="453" y="-199.01" font-family="Times,serif" font-size="9.00">&#45;11</text>
</g>
<!-- &#45;11&#45;&gt;1 -->
<g id="edge36" class="edge">
<title>&#45;11&#45;&gt;1</title>
<path fill="none" stroke="red" stroke-width="0.24" d="M444.03,-192.15C435.72,-184.02 423.93,-170.64 419,-156.21 407.47,-122.42 424.95,-82.37 438.82,-58.18"/>
<polygon fill="red" stroke="red" stroke-width="0.24" points="441.92,-59.81 444.07,-49.44 435.92,-56.21 441.92,-59.81"/>
</g>
<!-- &#45;11&#45;&gt;3 -->
<g id="edge19" class="edge">
<title>&#45;11&#45;&gt;3</title>
<path fill="none" stroke="green" stroke-width="0.49" d="M469.04,-194.71C472,-193.8 475.08,-192.92 478,-192.21 523.78,-181 656.64,-192.25 687,-156.21 701.17,-139.38 698.26,-125.61 687,-106.71 664.56,-69.04 614.16,-50.32 583.13,-42.03"/>
<polygon fill="green" stroke="green" stroke-width="0.49" points="583.58,-38.53 573.03,-39.52 581.89,-45.33 583.58,-38.53"/>
</g>
<!-- 290 -->
<g id="node29" class="node">
<title>290</title>
<ellipse fill="white" stroke="black" cx="453" cy="-131.46" rx="25" ry="25"/>
<text text-anchor="middle" x="453" y="-129.26" font-family="Times,serif" font-size="9.00">290</text>
</g>
<!-- &#45;11&#45;&gt;290 -->
<g id="edge50" class="edge">
<title>&#45;11&#45;&gt;290</title>
<path fill="none" stroke="green" stroke-width="0.5" d="M453,-192.17C453,-185.74 453,-176.24 453,-166.7"/>
<polygon fill="green" stroke="green" stroke-width="0.5" points="456.5,-166.48 453,-156.48 449.5,-166.48 456.5,-166.48"/>
</g>
<!-- &#45;12 -->
<g id="node12" class="node">
<title>&#45;12</title>
<polygon fill="lightgray" stroke="black" points="128,-140.46 96,-140.46 96,-122.46 128,-122.46 128,-140.46"/>
<text text-anchor="middle" x="112" y="-129.26" font-family="Times,serif" font-size="9.00">&#45;12</text>
</g>
<!-- &#45;12&#45;&gt;control -->
<g id="edge30" class="edge">
<title>&#45;12&#45;&gt;control</title>
<path fill="none" stroke="red" stroke-width="0.65" d="M120.05,-122.23C124.82,-117.5 131.07,-111.57 137,-106.71 156.79,-90.49 180.12,-73.95 199.26,-60.98"/>
<polygon fill="red" stroke="red" stroke-width="0.65" points="201.38,-63.77 207.73,-55.29 197.48,-57.96 201.38,-63.77"/>
</g>
<!-- &#45;12&#45;&gt;3 -->
<g id="edge17" class="edge">
<title>&#45;12&#45;&gt;3</title>
<path fill="none" stroke="red" stroke-width="0.78" d="M118.06,-122.41C122.63,-117 129.39,-110.22 137,-106.71 275.37,-42.84 330.63,-109.55 478,-70.71 497.46,-65.58 518.28,-56.36 533.66,-48.76"/>
<polygon fill="red" stroke="red" stroke-width="0.78" points="535.58,-51.71 542.91,-44.06 532.41,-45.46 535.58,-51.71"/>
</g>
<!-- &#45;13 -->
<g id="node13" class="node">
<title>&#45;13</title>
<polygon fill="lightgray" stroke="black" points="1064,-140.46 1032,-140.46 1032,-122.46 1064,-122.46 1064,-140.46"/>
<text text-anchor="middle" x="1048" y="-129.26" font-family="Times,serif" font-size="9.00">&#45;13</text>
</g>
<!-- &#45;13&#45;&gt;2 -->
<g id="edge41" class="edge">
<title>&#45;13&#45;&gt;2</title>
<path fill="none" stroke="green" stroke-width="0.41" d="M1040.72,-122.22C1036.02,-117.26 1029.58,-111.09 1023,-106.71 979,-77.44 920.82,-55.44 888.11,-44.36"/>
<polygon fill="green" stroke="green" stroke-width="0.41" points="889.03,-40.97 878.44,-41.15 886.83,-47.62 889.03,-40.97"/>
</g>
<!-- &#45;14 -->
<g id="node14" class="node">
<title>&#45;14</title>
<polygon fill="lightgray" stroke="black" points="178,-140.46 146,-140.46 146,-122.46 178,-122.46 178,-140.46"/>
<text text-anchor="middle" x="162" y="-129.26" font-family="Times,serif" font-size="9.00">&#45;14</text>
</g>
<!-- &#45;14&#45;&gt;control -->
<g id="edge2" class="edge">
<title>&#45;14&#45;&gt;control</title>
<path fill="none" stroke="green" stroke-width="0.14" d="M168.39,-122.44C177.3,-111.26 194.01,-90.29 208.71,-71.85"/>
<polygon fill="green" stroke="green" stroke-width="0.14" points="211.79,-73.6 215.28,-63.6 206.32,-69.24 211.79,-73.6"/>
</g>
<!-- &#45;14&#45;&gt;1 -->
<g id="edge1" class="edge">
<title>&#45;14&#45;&gt;1</title>
<path fill="none" stroke="red" stroke-width="0.1" d="M168.64,-122.31C173.28,-117.13 179.89,-110.68 187,-106.71 228.92,-83.31 368.98,-53.29 427.24,-41.46"/>
<polygon fill="red" stroke="red" stroke-width="0.1" points="428.01,-44.88 437.12,-39.47 426.63,-38.02 428.01,-44.88"/>
</g>
<!-- &#45;14&#45;&gt;3 -->
<g id="edge16" class="edge">
<title>&#45;14&#45;&gt;3</title>
<path fill="none" stroke="red" stroke-width="0.37" d="M168.08,-122.46C172.66,-117.06 179.42,-110.29 187,-106.71 304.83,-51.04 352.29,-105.05 478,-70.71 497.41,-65.41 518.24,-56.19 533.63,-48.64"/>
<polygon fill="red" stroke="red" stroke-width="0.37" points="535.54,-51.6 542.89,-43.97 532.39,-45.35 535.54,-51.6"/>
</g>
<!-- &#45;15 -->
<g id="node15" class="node">
<title>&#45;15</title>
<polygon fill="lightgray" stroke="black" points="228,-140.46 196,-140.46 196,-122.46 228,-122.46 228,-140.46"/>
<text text-anchor="middle" x="212" y="-129.26" font-family="Times,serif" font-size="9.00">&#45;15</text>
</g>
<!-- &#45;15&#45;&gt;control -->
<g id="edge34" class="edge">
<title>&#45;15&#45;&gt;control</title>
<path fill="none" stroke="green" stroke-width="0.39" d="M214.13,-122.44C216.67,-112.87 221.12,-96.12 225.42,-79.93"/>
<polygon fill="green" stroke="green" stroke-width="0.39" points="228.88,-80.55 228.06,-69.99 222.11,-78.75 228.88,-80.55"/>
</g>
<!-- &#45;15&#45;&gt;1 -->
<g id="edge20" class="edge">
<title>&#45;15&#45;&gt;1</title>
<path fill="none" stroke="green" stroke-width="0.21" d="M218.72,-122.44C223.39,-117.32 230.01,-110.88 237,-106.71 299.8,-69.29 384.9,-49.18 427.09,-40.92"/>
<polygon fill="green" stroke="green" stroke-width="0.21" points="427.91,-44.33 437.08,-39.03 426.61,-37.45 427.91,-44.33"/>
</g>
<!-- &#45;15&#45;&gt;3 -->
<g id="edge10" class="edge">
<title>&#45;15&#45;&gt;3</title>
<path fill="none" stroke="red" stroke-width="0.25" d="M218.51,-122.05C223.08,-116.76 229.68,-110.28 237,-106.71 334.33,-59.21 373.9,-100.56 478,-70.71 497.34,-65.16 518.17,-55.96 533.58,-48.47"/>
<polygon fill="red" stroke="red" stroke-width="0.25" points="535.47,-51.45 542.86,-43.86 532.35,-45.18 535.47,-51.45"/>
</g>
<!-- &#45;16 -->
<g id="node16" class="node">
<title>&#45;16</title>
<polygon fill="lightgray" stroke="black" points="854,-140.46 822,-140.46 822,-122.46 854,-122.46 854,-140.46"/>
<text text-anchor="middle" x="838" y="-129.26" font-family="Times,serif" font-size="9.00">&#45;16</text>
</g>
<!-- &#45;16&#45;&gt;1 -->
<g id="edge35" class="edge">
<title>&#45;16&#45;&gt;1</title>
<path fill="none" stroke="green" stroke-width="0.64" d="M831.52,-122C826.95,-116.69 820.35,-110.2 813,-106.71 699.28,-52.67 653.39,-104.15 532,-70.71 512.6,-65.37 491.77,-56.15 476.38,-48.61"/>
<polygon fill="green" stroke="green" stroke-width="0.64" points="477.62,-45.32 467.11,-43.95 474.48,-51.57 477.62,-45.32"/>
</g>
<!-- &#45;16&#45;&gt;2 -->
<g id="edge12" class="edge">
<title>&#45;16&#45;&gt;2</title>
<path fill="none" stroke="red" stroke-width="0.37" d="M840.13,-122.44C843.69,-109.04 850.99,-81.58 856.38,-61.26"/>
<polygon fill="red" stroke="red" stroke-width="0.37" points="859.82,-61.96 859,-51.39 853.05,-60.16 859.82,-61.96"/>
</g>
<!-- &#45;16&#45;&gt;3 -->
<g id="edge13" class="edge">
<title>&#45;16&#45;&gt;3</title>
<path fill="none" stroke="green" stroke-width="0.23" d="M831.34,-122.34C826.7,-117.17 820.09,-110.71 813,-106.71 736.32,-63.42 631.51,-45.56 583.27,-39.28"/>
<polygon fill="green" stroke="green" stroke-width="0.23" points="583.68,-35.81 573.33,-38.05 582.82,-42.75 583.68,-35.81"/>
</g>
<!-- &#45;17 -->
<g id="node17" class="node">
<title>&#45;17</title>
<polygon fill="lightgray" stroke="black" points="278,-140.46 246,-140.46 246,-122.46 278,-122.46 278,-140.46"/>
<text text-anchor="middle" x="262" y="-129.26" font-family="Times,serif" font-size="9.00">&#45;17</text>
</g>
<!-- &#45;17&#45;&gt;control -->
<g id="edge14" class="edge">
<title>&#45;17&#45;&gt;control</title>
<path fill="none" stroke="red" stroke-width="0.12" d="M259.87,-122.44C257.33,-112.87 252.88,-96.12 248.58,-79.93"/>
<polygon fill="red" stroke="red" stroke-width="0.12" points="251.89,-78.75 245.94,-69.99 245.12,-80.55 251.89,-78.75"/>
</g>
<!-- &#45;17&#45;&gt;1 -->
<g id="edge49" class="edge">
<title>&#45;17&#45;&gt;1</title>
<path fill="none" stroke="green" stroke-width="0.94" d="M269.26,-122.19C273.95,-117.22 280.39,-111.04 287,-106.71 333.02,-76.54 394.13,-54.63 427.89,-43.86"/>
<polygon fill="green" stroke="green" stroke-width="0.94" points="428.94,-47.2 437.44,-40.88 426.85,-40.52 428.94,-47.2"/>
</g>
<!-- &#45;17&#45;&gt;3 -->
<g id="edge45" class="edge">
<title>&#45;17&#45;&gt;3</title>
<path fill="none" stroke="red" stroke-width="0.57" d="M268.55,-122.14C273.15,-116.89 279.75,-110.42 287,-106.71 363.9,-67.36 395.43,-96.09 478,-70.71 497.23,-64.8 518.07,-55.61 533.51,-48.23"/>
<polygon fill="red" stroke="red" stroke-width="0.57" points="535.36,-51.22 542.81,-43.68 532.29,-44.93 535.36,-51.22"/>
</g>
<!-- &#45;18 -->
<g id="node18" class="node">
<title>&#45;18</title>
<polygon fill="lightgray" stroke="black" points="1114,-140.46 1082,-140.46 1082,-122.46 1114,-122.46 1114,-140.46"/>
<text text-anchor="middle" x="1098" y="-129.26" font-family="Times,serif" font-size="9.00">&#45;18</text>
</g>
<!-- &#45;18&#45;&gt;2 -->
<g id="edge23" class="edge">
<title>&#45;18&#45;&gt;2</title>
<path fill="none" stroke="green" stroke-width="0.25" d="M1090.85,-122.01C1086.21,-116.97 1079.77,-110.78 1073,-106.71 1012.36,-70.23 930.36,-49.84 889.07,-41.26"/>
<polygon fill="green" stroke="green" stroke-width="0.25" points="889.51,-37.78 879.02,-39.24 888.13,-44.64 889.51,-37.78"/>
</g>
<!-- &#45;19 -->
<g id="node19" class="node">
<title>&#45;19</title>
<polygon fill="lightgray" stroke="black" points="563,-210.21 531,-210.21 531,-192.21 563,-192.21 563,-210.21"/>
<text text-anchor="middle" x="547" y="-199.01" font-family="Times,serif" font-size="9.00">&#45;19</text>
</g>
<!-- &#45;20 -->
<g id="node20" class="node">
<title>&#45;20</title>
<polygon fill="lightgray" stroke="black" points="904,-140.46 872,-140.46 872,-122.46 904,-122.46 904,-140.46"/>
<text text-anchor="middle" x="888" y="-129.26" font-family="Times,serif" font-size="9.00">&#45;20</text>
</g>
<!-- &#45;20&#45;&gt;1 -->
<g id="edge26" class="edge">
<title>&#45;20&#45;&gt;1</title>
<path fill="none" stroke="green" stroke-width="0.12" d="M881.94,-122.42C877.37,-117.01 870.6,-110.24 863,-106.71 728.74,-44.48 675.03,-108.65 532,-70.71 512.55,-65.55 491.73,-56.33 476.34,-48.74"/>
<polygon fill="green" stroke="green" stroke-width="0.12" points="477.59,-45.44 467.09,-44.04 474.42,-51.69 477.59,-45.44"/>
</g>
<!-- &#45;20&#45;&gt;2 -->
<g id="edge29" class="edge">
<title>&#45;20&#45;&gt;2</title>
<path fill="none" stroke="red" stroke-width="0.4" d="M885.87,-122.44C882.31,-109.04 875.01,-81.58 869.62,-61.26"/>
<polygon fill="red" stroke="red" stroke-width="0.4" points="872.95,-60.16 867,-51.39 866.18,-61.96 872.95,-60.16"/>
</g>
<!-- &#45;20&#45;&gt;3 -->
<g id="edge22" class="edge">
<title>&#45;20&#45;&gt;3</title>
<path fill="none" stroke="red" stroke-width="0.14" d="M881.4,-122.24C876.78,-117.02 870.17,-110.56 863,-106.71 768.65,-56.04 638.89,-41.71 583.64,-37.78"/>
<polygon fill="red" stroke="red" stroke-width="0.14" points="583.53,-34.26 573.32,-37.11 583.07,-41.25 583.53,-34.26"/>
</g>
<!-- &#45;21 -->
<g id="node21" class="node">
<title>&#45;21</title>
<polygon fill="lightgray" stroke="black" points="1164,-140.46 1132,-140.46 1132,-122.46 1164,-122.46 1164,-140.46"/>
<text text-anchor="middle" x="1148" y="-129.26" font-family="Times,serif" font-size="9.00">&#45;21</text>
</g>
<!-- &#45;21&#45;&gt;2 -->
<g id="edge31" class="edge">
<title>&#45;21&#45;&gt;2</title>
<path fill="none" stroke="red" stroke-width="0.47" stroke-dasharray="1,5" d="M1141.35,-122.33C1136.71,-117.15 1130.1,-110.7 1123,-106.71 1044.93,-62.83 938.16,-45.23 889.32,-39.15"/>
<polygon fill="red" stroke="red" stroke-width="0.47" points="889.61,-35.66 879.27,-37.96 888.79,-42.61 889.61,-35.66"/>
</g>
<!-- &#45;22 -->
<g id="node22" class="node">
<title>&#45;22</title>
<polygon fill="lightgray" stroke="black" points="528,-140.46 496,-140.46 496,-122.46 528,-122.46 528,-140.46"/>
<text text-anchor="middle" x="512" y="-129.26" font-family="Times,serif" font-size="9.00">&#45;22</text>
</g>
<!-- &#45;22&#45;&gt;control -->
<g id="edge11" class="edge">
<title>&#45;22&#45;&gt;control</title>
<path fill="none" stroke="red" stroke-width="0.19" d="M505.34,-122.35C500.69,-117.19 494.08,-110.74 487,-106.71 421.23,-69.31 334.26,-50.71 282.15,-42.34"/>
<polygon fill="red" stroke="red" stroke-width="0.19" points="282.62,-38.87 272.2,-40.79 281.55,-45.78 282.62,-38.87"/>
</g>
<!-- &#45;22&#45;&gt;1 -->
<g id="edge8" class="edge">
<title>&#45;22&#45;&gt;1</title>
<path fill="none" stroke="red" stroke-width="0.24" d="M506.97,-122.44C498.17,-108.41 479.71,-78.96 466.84,-58.43"/>
<polygon fill="red" stroke="red" stroke-width="0.24" points="469.66,-56.33 461.38,-49.72 463.73,-60.05 469.66,-56.33"/>
</g>
<!-- &#45;22&#45;&gt;2 -->
<g id="edge37" class="edge">
<title>&#45;22&#45;&gt;2</title>
<path fill="none" stroke="green" stroke-width="0.26" d="M518.58,-122.2C523.2,-116.98 529.8,-110.51 537,-106.71 638.72,-52.96 778.92,-40.26 836.6,-37.27"/>
<polygon fill="green" stroke="green" stroke-width="0.26" points="836.86,-40.76 846.69,-36.81 836.54,-33.77 836.86,-40.76"/>
</g>
<!-- &#45;22&#45;&gt;3 -->
<g id="edge27" class="edge">
<title>&#45;22&#45;&gt;3</title>
<path fill="none" stroke="red" stroke-width="0.56" d="M515.84,-122.44C522.41,-108.69 536.07,-80.12 545.85,-59.67"/>
<polygon fill="red" stroke="red" stroke-width="0.56" points="549.14,-60.91 550.29,-50.38 542.82,-57.89 549.14,-60.91"/>
</g>
<!-- &#45;23 -->
<g id="node23" class="node">
<title>&#45;23</title>
<polygon fill="lightgray" stroke="black" points="32,-140.46 0,-140.46 0,-122.46 32,-122.46 32,-140.46"/>
<text text-anchor="middle" x="16" y="-129.26" font-family="Times,serif" font-size="9.00">&#45;23</text>
</g>
<!-- &#45;23&#45;&gt;control -->
<g id="edge5" class="edge">
<title>&#45;23&#45;&gt;control</title>
<path fill="none" stroke="green" stroke-width="0.56" d="M23.18,-122.06C27.84,-117.04 34.27,-110.86 41,-106.71 89.06,-77.1 151.4,-57.44 192.72,-46.61"/>
<polygon fill="green" stroke="green" stroke-width="0.56" points="193.68,-49.97 202.5,-44.1 191.94,-43.19 193.68,-49.97"/>
</g>
<!-- &#45;24 -->
<g id="node24" class="node">
<title>&#45;24</title>
<polygon fill="lightgray" stroke="black" points="328,-140.46 296,-140.46 296,-122.46 328,-122.46 328,-140.46"/>
<text text-anchor="middle" x="312" y="-129.26" font-family="Times,serif" font-size="9.00">&#45;24</text>
</g>
<!-- &#45;24&#45;&gt;control -->
<g id="edge46" class="edge">
<title>&#45;24&#45;&gt;control</title>
<path fill="none" stroke="red" stroke-width="0.13" d="M305.61,-122.44C296.7,-111.26 279.99,-90.29 265.29,-71.85"/>
<polygon fill="red" stroke="red" stroke-width="0.13" points="267.68,-69.24 258.72,-63.6 262.21,-73.6 267.68,-69.24"/>
</g>
<!-- &#45;24&#45;&gt;3 -->
<g id="edge21" class="edge">
<title>&#45;24&#45;&gt;3</title>
<path fill="none" stroke="green" stroke-width="0.67" d="M318.63,-122.29C323.26,-117.11 329.87,-110.65 337,-106.71 393.61,-75.43 416.81,-91.67 478,-70.71 497.03,-64.19 517.88,-55.03 533.38,-47.81"/>
<polygon fill="green" stroke="green" stroke-width="0.67" points="535.17,-50.84 542.71,-43.4 532.18,-44.51 535.17,-50.84"/>
</g>
<!-- 290&#45;&gt;1 -->
<g id="edge51" class="edge">
<title>290&#45;&gt;1</title>
<path fill="none" stroke="green" stroke-width="0.44" d="M453,-106.23C453,-92.65 453,-75.72 453,-61.93"/>
<polygon fill="green" stroke="green" stroke-width="0.44" points="456.5,-61.67 453,-51.67 449.5,-61.67 456.5,-61.67"/>
</g>
</g>
</svg>
