<?xml version="1.0" encoding="UTF-8" standalone="no"?>
<!DOCTYPE svg PUBLIC "-//W3C//DTD SVG 1.1//EN"
 "http://www.w3.org/Graphics/SVG/1.1/DTD/svg11.dtd">
<!-- Generated by graphviz version 2.43.0 (0)
 -->
<!-- Title: %3 Pages: 1 -->
<svg width="227pt" height="218pt"
 viewBox="0.00 0.00 227.00 218.21" xmlns="http://www.w3.org/2000/svg" xmlns:xlink="http://www.w3.org/1999/xlink">
<g id="graph0" class="graph" transform="scale(1 1) rotate(0) translate(4 214.21)">
<title>%3</title>
<polygon fill="white" stroke="transparent" points="-4,4 -4,-214.21 223,-214.21 223,4 -4,4"/>
<!-- x -->
<g id="node1" class="node">
<title>x</title>
<polygon fill="lightgray" stroke="black" points="22,-129.85 0,-129.85 0,-111.85 22,-111.85 22,-129.85"/>
<text text-anchor="middle" x="11" y="-118.65" font-family="Times,serif" font-size="9.00">x</text>
</g>
<!-- 197 -->
<g id="node7" class="node">
<title>197</title>
<ellipse fill="white" stroke="black" cx="50" cy="-24.75" rx="25" ry="25"/>
<text text-anchor="middle" x="50" y="-22.55" font-family="Times,serif" font-size="9.00">197</text>
</g>
<!-- x&#45;&gt;197 -->
<g id="edge7" class="edge">
<title>x&#45;&gt;197</title>
<path fill="none" stroke="red" stroke-width="0.27" d="M14.33,-111.83C19.3,-99.81 28.97,-76.49 36.99,-57.15"/>
<polygon fill="red" stroke="red" stroke-width="0.27" points="40.28,-58.34 40.88,-47.76 33.82,-55.66 40.28,-58.34"/>
</g>
<!-- dx -->
<g id="node2" class="node">
<title>dx</title>
<polygon fill="lightgray" stroke="black" points="219,-210.21 191,-210.21 191,-192.21 219,-192.21 219,-210.21"/>
<text text-anchor="middle" x="205" y="-199.01" font-family="Times,serif" font-size="9.00">dx</text>
</g>
<!-- 1 -->
<g id="node6" class="node">
<title>1</title>
<ellipse fill="lightblue" stroke="black" cx="183" cy="-120.85" rx="16.03" ry="16.03"/>
<text text-anchor="middle" x="183" y="-118.65" font-family="Times,serif" font-size="9.00">1</text>
</g>
<!-- dx&#45;&gt;1 -->
<g id="edge4" class="edge">
<title>dx&#45;&gt;1</title>
<path fill="none" stroke="green" stroke-width="0.3" d="M202.73,-192.12C199.72,-181.4 194.28,-162.04 189.88,-146.34"/>
<polygon fill="green" stroke="green" stroke-width="0.3" points="193.24,-145.37 187.17,-136.69 186.5,-147.26 193.24,-145.37"/>
</g>
<!-- theta -->
<g id="node3" class="node">
<title>theta</title>
<polygon fill="lightgray" stroke="black" points="172.5,-210.21 131.5,-210.21 131.5,-192.21 172.5,-192.21 172.5,-210.21"/>
<text text-anchor="middle" x="152" y="-199.01" font-family="Times,serif" font-size="9.00">theta</text>
</g>
<!-- control -->
<g id="node5" class="node">
<title>control</title>
<ellipse fill="lightblue" stroke="black" cx="113" cy="-120.85" rx="35.21" ry="35.21"/>
<text text-anchor="middle" x="113" y="-118.65" font-family="Times,serif" font-size="9.00">control</text>
</g>
<!-- theta&#45;&gt;control -->
<g id="edge5" class="edge">
<title>theta&#45;&gt;control</title>
<path fill="none" stroke="green" stroke-width="0.19" d="M147.97,-192.12C144.35,-184.84 138.73,-173.56 133.06,-162.15"/>
<polygon fill="green" stroke="green" stroke-width="0.19" points="136.12,-160.44 128.53,-153.05 129.85,-163.56 136.12,-160.44"/>
</g>
<!-- theta&#45;&gt;1 -->
<g id="edge2" class="edge">
<title>theta&#45;&gt;1</title>
<path fill="none" stroke="green" stroke-width="0.28" d="M155.2,-192.12C159.46,-181.34 167.19,-161.8 173.42,-146.06"/>
<polygon fill="green" stroke="green" stroke-width="0.28" points="176.82,-146.98 177.25,-136.4 170.31,-144.41 176.82,-146.98"/>
</g>
<!-- dtheta -->
<g id="node4" class="node">
<title>dtheta</title>
<polygon fill="lightgray" stroke="black" points="113.5,-210.21 66.5,-210.21 66.5,-192.21 113.5,-192.21 113.5,-210.21"/>
<text text-anchor="middle" x="90" y="-199.01" font-family="Times,serif" font-size="9.00">dtheta</text>
</g>
<!-- dtheta&#45;&gt;control -->
<g id="edge3" class="edge">
<title>dtheta&#45;&gt;control</title>
<path fill="none" stroke="red" stroke-width="0.34" d="M92.37,-192.12C94.36,-185.35 97.36,-175.13 100.46,-164.57"/>
<polygon fill="red" stroke="red" stroke-width="0.34" points="103.85,-165.44 103.31,-154.86 97.14,-163.47 103.85,-165.44"/>
</g>
<!-- dtheta&#45;&gt;1 -->
<g id="edge6" class="edge">
<title>dtheta&#45;&gt;1</title>
<path fill="none" stroke="green" stroke-width="0.26" d="M105.43,-192.1C119.73,-184.13 141.15,-171.04 157,-156.21 161.06,-152.41 164.96,-147.92 168.44,-143.46"/>
<polygon fill="green" stroke="green" stroke-width="0.26" points="171.47,-145.25 174.56,-135.11 165.83,-141.11 171.47,-145.25"/>
</g>
<!-- dtheta&#45;&gt;197 -->
<g id="edge1" class="edge">
<title>dtheta&#45;&gt;197</title>
<path fill="none" stroke="red" stroke-width="0.43" d="M85.2,-192.07C80.34,-183.46 72.99,-169.33 69,-156.21 59.31,-124.31 54.49,-86.47 52.14,-59.78"/>
<polygon fill="red" stroke="red" stroke-width="0.43" points="55.63,-59.47 51.33,-49.79 48.65,-60.04 55.63,-59.47"/>
</g>
<!-- 1&#45;&gt;197 -->
<g id="edge8" class="edge">
<title>1&#45;&gt;197</title>
<path fill="none" stroke="red" stroke-width="0.25" d="M174.74,-106.39C170.11,-99.57 163.88,-91.49 157,-85.5 134.39,-65.82 104.26,-49.71 81.74,-39.19"/>
<polygon fill="red" stroke="red" stroke-width="0.25" points="83.15,-35.99 72.59,-35.04 80.25,-42.36 83.15,-35.99"/>
</g>
</g>
</svg>
